# AST/ASF file generated using VICON BodyLanguage
# -----------------------------------------------
:version 1.10
:name VICON
:units
  mass 1.0
  length 0.45
  angle deg
:documentation
   .ast/.asf automatically generated from VICON data using
   VICON BodyBuilder and BodyLanguage model FoxedUp or BRILLIANT.MOD
:root
   order TX TY TZ RX RY RZ
   axis XYZ
   position 0 0 0  
   orientation 0 -0 0 
:bonedata
  begin
     id 1 
     name lhipjoint
     direction 0.432694 -0.693742 0.575759 
     length 2.19277 
     axis 0 -0 0  XYZ
  end
  begin
     id 2 
     name lfemur
     direction 0.34202 -0.939693 0  
     length 6.69022  
     axis 0 -0 20  XYZ
    dof rx ry rz
    limits (-160.0 20.0)
           (-70.0 70.0)
           (-60.0 70.0)
  end
  begin
     id 3 
     name ltibia
     direction 0.34202 -0.939693 0   
     length 6.50337   
     axis 0 -0 20   XYZ
    dof rx
    limits (-10.0 170.0)
  end
  begin
     id 4 
     name lfoot
     direction 0.158999 -0.435969 0.885805   
     length 2.70564   
     axis -90 -1.13533e-015 20   XYZ
    dof rx rz
    limits (-45.0 90.0)
           (-70.0 20.0)
  end
  begin
     id 5 
     name ltoes
     direction -0.00592919 0.00964381 0.999936   
     length 1.29929   
     axis -90 -1.13533e-015 20   XYZ
    dof rx
    limits (-90.0 20.0)
  end
  begin
     id 6 
     name rhipjoint
     direction -0.414359 -0.700339 0.581234   
     length 2.17212  
     axis 0 -0 0  XYZ 
  end
  begin
     id 7 
     name rfemur
     direction -0.34202 -0.939693 0   
     length 7.17659   
     axis 0 -0 -20   XYZ
    dof rx ry rz
    limits (-160.0 20.0)
           (-70.0 70.0)
           (-70.0 60.0)
  end
  begin
     id 8 
     name rtibia
     direction -0.34202 -0.939693 0   
     length 6.36669   
     axis 0 -0 -20   XYZ
    dof rx
    limits (-10.0 170.0)
 end
 begin
     id 9 
     name rfoot
     direction -0.137064 -0.37658 0.916188   
     length 2.22351  
     axis -90 1.13533e-015 -20   XYZ
    dof rx rz
    limits (-45.0 90.0)
           (-20.0 70.0)
  end
  begin
     id 10 
     name rtoes
     direction -0.000784077 -0.00289101 0.999996   
     length 1.09522   
     axis -90 1.13533e-015 -20   XYZ
    dof rx
    limits (-90.0 20.0)
  end
  begin
     id 11 
     name lowerback
     direction -0.0176242 0.984912 -0.172157   
     length 1.65301   
     axis 0 -0 0   XYZ
    dof rx ry rz
    limits (-20.0 45.0)
           (-30.0 30.0)
           (-30.0 30.0)
  end
  begin
     id 12 
     name upperback
     direction -0.00218128 0.998776 -0.0494072   
     length 1.67776   
     axis 0 -0 0   XYZ
    dof rx ry rz
    limits (-20.0 45.0)
           (-30.0 30.0)
           (-30.0 30.0)
  end
  begin
     id 13 
     name thorax
     direction 0.00544186 0.999658 0.0255711   
     length 1.72293   
     axis 0 -0 0   XYZ
    dof rx ry rz
    limits (-20.0 45.0)
           (-30.0 30.0)
           (-30.0 30.0)
  end
  begin
     id 14 
     name lowerneck
     direction -0.105325 0.983841 0.144785   
     length 2.14226   
     axis 0 -0 0   XYZ
    dof rx ry rz
    limits (-20.0 45.0)
           (-30.0 30.0)
           (-30.0 30.0)
  end
  begin
     id 15 
     name upperneck
     direction 0.0547957 0.988053 -0.144041   
     length 2.17508   
     axis 0 -0 0   XYZ
    dof rx ry rz
    limits (-20.0 45.0)
           (-30.0 30.0)
           (-30.0 30.0)
  end
  begin
     id 16
     name head
     direction 0.0247488 0.997534 -0.0656813  
     length 2.20048  
     axis 0 -0 0   XYZ
    dof rx ry rz
    limits (-20.0 45.0)
           (-30.0 30.0)
           (-30.0 30.0)
  end
  begin
     id 17 
     name lclavicle
     direction 0.820559 0.567247 -0.0701026  
     length 4.09615  
     axis 0 -0 0   XYZ
    dof ry rz
    limits (-20.0 10.0)
           (0.0 20.0)
  end
  begin
     id 18 
     name lhumerus
     direction 0.999977 -0.0067566 -9.96392e-005   
     length 4.59333   
     axis -180 -30 -90   XYZ
    dof rx ry rz
    limits (-60.0 90.0)
           (-90.0 90.0)
           (-90.0 90.0)
  end
  begin
     id 19
     name lradius
     direction 1 -4.48982e-011 -2.53425e-027   
     length 2.81151   
     axis -180 -30 -90   XYZ
    dof rx
    limits (-10.0 170.0)
  end
  begin
     id 20
     name lwrist
     direction 1 -4.48939e-011 -7.39254e-028   
     length 1.40576   
     axis 2.56395e-016 90 90   XYZ
    dof ry
    limits (-180.0 0.0)
 end
  begin
     id 21 
     name lhand
     direction 1 -4.48939e-011 -1.47851e-027   
     length 0.895651   
     axis 9.43423e-016 90 90   XYZ
    dof rx rz
    limits (-90.0 90.0)
           (-45.0 45.0)
  end
  begin
     id 22 
     name lfingers
     direction 1 -4.48978e-011 -2.95702e-027   
     length 0.722097   
     axis 1.88685e-015 90 90   XYZ
    dof rx
    limits (0.0 90.0)
  end
  begin
     id 23
     name lthumb
     direction 0.707107 -6.34931e-011 0.707107   
     length 1.03679   
     axis -90 45 -9.86935e-015   XYZ
    dof rx rz
    limits (-45.0 45.0)
           (-45.0 45.0)
  end
  begin
     id 24 
     name rclavicle
     direction -0.831414 0.553102 -0.0531864   
     length 4.24872  
     axis 0 -0 0   XYZ 
    dof ry rz
    limits (-10.0 20.0)
           (-20.0 0.0)
  end
  begin
     id 25 
     name rhumerus
     direction -0.999916 -0.000939607 0.0129331  
     length 4.74834   
     axis -180 30 90   XYZ
    dof rx ry rz
    limits (-90.0 60.0)
           (-90.0 90.0)
           (-90.0 90.0)
  end
  begin
     id 26 
     name rradius
     direction -1 -4.48956e-011 -1.31752e-027   
     length 2.79907   
     axis -180 30 90   XYZ
    dof rx
    limits (-10.0 170.0)
  end
  begin
     id 27 
     name rwrist
     direction -1 -4.4897e-011 -7.39254e-028   
     length 1.39954   
     axis 2.56395e-016 -90 -90   XYZ
    dof ry
    limits (-180.0 0.0)
  end
  begin
     id 28
     name rhand
     direction -0.999997 -0.00250697 0.000800838   
     length 0.953304   
     axis 9.43423e-016 -90 -90   XYZ
    dof rx rz
    limits (-90.0 90.0)
           (-45.0 45.0)
  end
  begin
     id 29
     name rfingers
     direction -1 -4.48954e-011 -2.95702e-027   
     length 0.763342   
     axis 1.88685e-015 -90 -90   XYZ
    dof rx
    limits (0.0 90.0)
  end
  begin
     id 30
     name rthumb
     direction -0.709701 -0.00217037 0.7045   
     length 1.10115   
     axis -90 -45 9.86935e-015   XYZ
    dof rx rz
    limits (-45.0 45.0)
           (-45.0 45.0)
  end
:hierarchy
  begin
    root lhipjoint rhipjoint lowerback
    lhipjoint lfemur
    lfemur ltibia
    ltibia lfoot
    lfoot ltoes
    rhipjoint rfemur
    rfemur rtibia
    rtibia rfoot
    rfoot rtoes
    lowerback upperback
    upperback thorax
    thorax lowerneck lclavicle rclavicle
    lowerneck upperneck
    upperneck head
    lclavicle lhumerus
    lhumerus lradius
    lradius lwrist
    lwrist lhand lthumb
    lhand lfingers
    rclavicle rhumerus
    rhumerus rradius
    rradius rwrist
    rwrist rhand rthumb
    rhand rfingers
  end

#!OML:ASF G:\ViconDB\ViconDB\414\test\team2\shane.ASF
:FULLY-SPECIFIED
:DEGREES
32
root 5.3909 15.1651 -38.2777 6.42333 -11.116 -3.06749
lowerback 15.2135 6.50964 6.75762
upperback 4.79714 9.50899 -0.0797068
thorax -2.21054 4.75086 -5.33897
lowerneck -13.201 -5.81109 -5.8626
upperneck 14.7032 -7.50019 4.61722
head 7.06941 -3.52769 1.68659
rclavicle -1.01181e-013 -2.14687e-014
rhumerus 3.41006 18.9237 -96.482
rradius 101.814
rwrist 32.7739
rhand -46.2235 -28.2769
rfingers 7.12502
rthumb -18.9607 -57.3728
lclavicle -1.01181e-013 -2.14687e-014
lhumerus -69.0327 -34.3647 87.1986
lradius 29.8104
lwrist -9.77702
lhand -34.4486 6.07016
lfingers 7.12502
lthumb -7.61261 35.9132
rfemur 31.1593 -9.95037 13.4272
rtibia -1.90833e-014
rfoot -27.3097 -0.783897
rtoes -23.8057
lfemur -51.5974 16.6638 -19.2828
ltibia 61.2599
lfoot -32.3956 -8.16242
ltoes -8.01473
33
root 5.38625 15.1014 -38.0549 6.7363 -11.3314 -3.06866
lowerback 15.3352 6.64936 6.54061
upperback 4.94541 9.65174 -0.259708
thorax -2.10222 4.83049 -5.43053
lowerneck -13.0978 -5.81104 -5.87433
upperneck 14.3421 -7.53065 4.86064
head 6.94665 -3.52638 1.769
rclavicle 7.7526e-015 -9.54166e-015
rhumerus 4.72261 18.5315 -95.6323
rradius 102.634
rwrist 33.8912
rhand -46.3382 -27.9388
rfingers 7.12502
rthumb -19.071 -57.0238
lclavicle 7.7526e-015 -9.54166e-015
lhumerus -70.2755 -34.6038 86.8896
lradius 31.7632
lwrist -9.57872
lhand -34.699 5.49489
lfingers 7.12502
lthumb -7.85427 35.329
rfemur 31.5995 -9.44146 13.2647
rtibia 4.13472e-014
rfoot -26.7627 -0.917013
rtoes -25.233
lfemur -51.9014 16.2761 -19.0549
ltibia 62.983
lfoot -31.7757 -7.833
ltoes -7.17304
34
root 5.37914 15.0335 -37.8267 7.14011 -11.5849 -3.13903
lowerback 15.5224 6.82577 6.23971
upperback 4.99563 9.83888 -0.41047
thorax -2.14691 4.92094 -5.47194
lowerneck -13.0646 -5.84353 -5.87725
upperneck 14.1413 -7.60444 5.0774
head 6.88919 -3.54567 1.83352
rclavicle 6.95746e-014 0
rhumerus 5.5419 18.24 -94.6375
rradius 103.453
rwrist 34.7746
rhand -46.0928 -28.121
rfingers 7.12502
rthumb -18.8349 -57.2291
lclavicle 6.95746e-014 0
lhumerus -71.6477 -34.934 86.9625
lradius 33.7067
lwrist -9.7501
lhand -34.6869 5.24377
lfingers 7.12502
lthumb -7.84261 35.0783
rfemur 32.0024 -8.87348 13.1264
rtibia -1.27222e-014
rfoot -26.1857 -0.672553
rtoes -25.9654
lfemur -52.1215 15.8896 -18.775
ltibia 64.6872
lfoot -31.8422 -7.216
ltoes -6.37804
35
root 5.37408 14.9723 -37.593 7.50788 -11.7474 -3.17554
lowerback 15.8746 7.03233 5.83559
upperback 4.9581 10.0655 -0.431684
thorax -2.41054 5.0156 -5.3646
lowerneck -12.8601 -5.93135 -6.06282
upperneck 13.9409 -7.70224 5.1568
head 6.80582 -3.60083 1.88473
rclavicle -8.36883e-014 2.62396e-014
rhumerus 5.90597 17.6934 -93.3473
rradius 104.074
rwrist 34.7984
rhand -45.977 -27.2086
rfingers 7.12502
rthumb -18.7235 -56.3275
lclavicle -8.36883e-014 2.62396e-014
lhumerus -72.8296 -35.0724 87.1532
lradius 35.8912
lwrist -9.46258
lhand -34.5442 5.34214
lfingers 7.12502
lthumb -7.70485 35.1818
rfemur 32.4403 -8.3899 12.9441
rtibia -9.54166e-015
rfoot -25.3508 -0.528672
rtoes -27.2691
lfemur -52.179 15.492 -18.5427
ltibia 66.27
lfoot -32.3568 -6.76391
ltoes -5.88843
36
root 5.37124 14.923 -37.349 7.94305 -12.0008 -3.2359
lowerback 15.9769 7.17914 5.66404
upperback 5.04923 10.2161 -0.780044
thorax -2.31148 5.09971 -5.65943
lowerneck -12.8587 -5.94838 -5.78487
upperneck 13.6291 -7.82038 5.48174
head 6.71458 -3.61917 1.93438
rclavicle -7.33515e-014 8.34896e-015
rhumerus 6.28943 17.1445 -92.3186
rradius 104.362
rwrist 34.8065
rhand -45.6839 -26.1007
rfingers 7.12502
rthumb -18.4416 -55.2466
lclavicle -7.33515e-014 8.34896e-015
lhumerus -73.3542 -35.2977 86.5846
lradius 37.9614
lwrist -9.4545
lhand -34.6355 4.97491
lfingers 7.12502
lthumb -7.79293 34.8113
rfemur 32.7692 -7.81899 12.7711
rtibia 1.90833e-014
rfoot -24.2699 -0.226003
rtoes -28.0986
lfemur -52.149 15.1098 -18.291
ltibia 67.6975
lfoot -32.746 -6.31765
ltoes -5.52561
37
root 5.36792 14.8827 -37.1039 8.53597 -12.2059 -3.30522
lowerback 16.1503 7.26091 5.37391
upperback 5.04735 10.2719 -1.04463
thorax -2.39834 5.12355 -5.81353
lowerneck -12.9821 -5.91607 -5.81488
upperneck 13.473 -7.8127 5.81792
head 6.70066 -3.58884 2.04556
rclavicle 3.49861e-014 6.36111e-015
rhumerus 6.38095 16.9137 -91.2465
rradius 104.296
rwrist 35.0159
rhand -45.3207 -25.8614
rfingers 7.12502
rthumb -18.0922 -55.04
lclavicle 3.49861e-014 6.36111e-015
lhumerus -73.6395 -34.9622 85.9657
lradius 39.9651
lwrist -10.2009
lhand -35.234 9.74931
lfingers 7.12502
lthumb -8.37063 39.5634
rfemur 32.9098 -7.31416 12.6233
rtibia 1.59028e-014
rfoot -22.8945 0.20363
rtoes -29.0862
lfemur -52.2903 15.0379 -18.22
ltibia 68.9176
lfoot -33.0194 -6.27209
ltoes -5.38237
